<?xml version="1.0"?>
<svg xmlns="http://www.w3.org/2000/svg" height="512px" viewBox="0 0 512 512" width="512px" class=""><g><g fill-rule="evenodd"><path d="m189.996094 10c-99.410156 0-179.996094 80.585938-179.996094 179.996094s80.585938 179.996094 179.996094 179.996094c26.933594 0 52.484375-5.925782 75.425781-16.53125 5.03125-20.636719 15.605469-40.199219 31.722656-56.316407 16.117188-16.117187 35.679688-26.695312 56.320313-31.722656 10.601562-22.945313 16.527344-48.492187 16.527344-75.425781 0-99.410156-80.585938-179.996094-179.996094-179.996094zm0 0" fill="#ffd777" data-original="#FFD777" class="" style="fill:#E3E9ED" data-old_color="#ffd777"/><path d="m353.460938 265.421875c-20.636719 5.03125-40.199219 15.605469-56.316407 31.722656-16.121093 16.117188-26.695312 35.679688-31.726562 56.320313-9.59375 39.363281.980469 82.636718 31.726562 113.382812 46.859375 46.859375 122.839844 46.859375 169.699219 0 46.863281-46.863281 46.863281-122.84375 0-169.703125-30.742188-30.746093-74.015625-41.320312-113.382812-31.722656zm49.296874 67.527344c7.808594-7.808594 20.472657-7.808594 28.28125 0 7.808594 7.808593 7.808594 20.472656 0 28.28125l-20.765624 20.765625 20.765624 20.765625c7.808594 7.808593 7.808594 20.46875 0 28.277343-7.808593 7.808594-20.472656 7.808594-28.28125 0l-20.761718-20.761718-20.765625 20.761718c-7.808594 7.808594-20.472657 7.808594-28.28125 0-7.808594-7.808593-7.808594-20.46875 0-28.277343l20.765625-20.765625-20.765625-20.765625c-7.808594-7.808594-7.808594-20.472657 0-28.28125 7.808593-7.808594 20.472656-7.808594 28.28125 0l20.765625 20.765625zm0 0" fill="#ff836c" data-original="#FF836C" class="" style="fill:#FFFFFF" data-old_color="#ff836c"/><path d="m381.996094 353.714844-20.765625-20.765625c-7.808594-7.808594-20.472657-7.808594-28.28125 0-7.808594 7.808593-7.808594 20.472656 0 28.28125l20.765625 20.765625-20.765625 20.765625c-7.808594 7.808593-7.808594 20.46875 0 28.277343 7.808593 7.808594 20.472656 7.808594 28.28125 0l20.765625-20.761718 20.761718 20.761718c7.808594 7.808594 20.472657 7.808594 28.28125 0 7.808594-7.808593 7.808594-20.46875 0-28.277343l-20.765624-20.765625 20.765624-20.765625c7.808594-7.808594 7.808594-20.472657 0-28.28125-7.808593-7.808594-20.472656-7.808594-28.28125 0zm0 0" fill="#f7f7f7" data-original="#F7F7F7" class="active-path" style="fill:#E3E9ED" data-old_color="#f7f7f7"/></g><path d="m446.898438 347.089844c0-8.011719-3.121094-15.546875-8.785157-21.210938-11.699219-11.695312-30.730469-11.695312-42.425781 0l-13.691406 13.695313-13.695313-13.695313c-11.695312-11.695312-30.726562-11.695312-42.421875 0-5.664062 5.664063-8.785156 13.199219-8.785156 21.210938 0 8.011718 3.121094 15.546875 8.785156 21.210937l13.695313 13.695313-13.695313 13.691406c-5.664062 5.667969-8.785156 13.199219-8.785156 21.210938 0 8.015624 3.121094 15.546874 8.785156 21.214843 5.664063 5.664063 13.199219 8.785157 21.210938 8.785157 8.011718 0 15.546875-3.121094 21.210937-8.785157l13.695313-13.695312 13.691406 13.695312c11.699219 11.691407 30.726562 11.691407 42.425781 0 11.695313-11.699219 11.695313-30.730469 0-42.425781l-13.695312-13.691406 13.695312-13.695313c5.660157-5.664062 8.785157-13.199219 8.785157-21.210937zm-22.929688 7.070312-20.765625 20.761719c-1.875 1.875-2.929687 4.421875-2.929687 7.074219s1.054687 5.191406 2.929687 7.070312l20.765625 20.765625c3.898438 3.894531 3.898438 10.238281 0 14.136719s-10.242188 3.898438-14.140625 0l-20.765625-20.761719c-3.902344-3.90625-10.234375-3.90625-14.140625 0l-20.765625 20.761719c-3.898438 3.898438-10.238281 3.898438-14.136719 0-3.898437-3.894531-3.898437-10.238281 0-14.136719l20.761719-20.765625c3.90625-3.90625 3.90625-10.238281 0-14.144531l-20.761719-20.765625c-1.890625-1.886719-2.929687-4.394531-2.929687-7.066406s1.039062-5.183594 2.929687-7.070313c1.949219-1.949219 4.507813-2.921875 7.066407-2.921875 2.5625 0 5.121093.972656 7.070312 2.921875l20.765625 20.765625c3.902344 3.902344 10.234375 3.90625 14.140625 0l20.765625-20.765625c3.898437-3.898437 10.242187-3.898437 14.140625 0 1.886719 1.890625 2.929688 4.398438 2.929688 7.070313s-1.039063 5.179687-2.929688 7.070312zm0 0" data-original="#000000" class="" style="fill:#41D3BD" data-old_color="#000000"/><path d="m473.917969 290.074219c-28.546875-28.546875-67.171875-41.011719-104.523438-37.40625 7.027344-20.0625 10.597657-41.066407 10.597657-62.671875 0-104.765625-85.230469-189.996094-189.996094-189.996094-35.851563 0-70.769532 10.039062-100.980469 29.03125-4.675781 2.9375-6.085937 9.113281-3.144531 13.789062 2.9375 4.675782 9.109375 6.082032 13.785156 3.144532 27.023438-16.988282 58.261719-25.964844 90.339844-25.964844 93.738281 0 169.996094 76.261719 169.996094 169.996094 0 23.316406-4.621094 45.847656-13.742188 67.042968-20.585938 5.851563-40 16.855469-56.175781 33.035157-15.894531 15.890625-27.160157 35.175781-33.132813 56.21875-21.164062 9.09375-43.664062 13.699219-66.945312 13.699219-93.734375 0-169.996094-76.257813-169.996094-169.996094 0-32.078125 8.976562-63.316406 25.960938-90.335938 2.9375-4.675781 1.53125-10.851562-3.144532-13.789062-4.675781-2.9375-10.847656-1.53125-13.789062 3.144531-18.988282 30.214844-29.027344 65.132813-29.027344 100.980469 0 104.765625 85.230469 189.996094 189.996094 189.996094 21.582031 0 42.5625-3.558594 62.601562-10.574219-.398437 4.15625-.601562 8.351562-.601562 12.578125 0 34.722656 13.523437 67.367187 38.078125 91.921875 24.941406 24.941406 58.257812 38.082031 92.035156 38.082031 19.179687 0 38.511719-4.242188 56.53125-12.964844 4.972656-2.40625 7.050781-8.386718 4.648437-13.355468-2.40625-4.972657-8.390624-7.050782-13.359374-4.644532-42.101563 20.378906-92.621094 11.832032-125.714844-21.261718-20.773438-20.773438-32.21875-48.398438-32.21875-77.777344 0-8.796875 1.035156-17.429688 3.027344-25.773438.089843-.304687.160156-.613281.21875-.925781 4.757812-19.171875 14.644531-36.757813 28.972656-51.082031 42.886718-42.890625 112.671875-42.890625 155.558594 0 33.015624 33.011718 41.601562 83.445312 21.371093 125.488281-2.398437 4.976563-.304687 10.953125 4.675781 13.347656 4.972657 2.394531 10.949219.304688 13.34375-4.675781 23.910157-49.691406 13.765626-109.289062-25.246093-148.300781zm0 0" data-original="#000000" class="" style="fill:#41D3BD" data-old_color="#000000"/><path d="m131.164062 233.667969c3.90625 3.902343 10.238282 3.902343 14.144532 0 11.9375-11.9375 27.808594-18.511719 44.6875-18.511719 16.882812 0 32.75 6.574219 44.6875 18.511719 1.953125 1.953125 4.511718 2.929687 7.070312 2.929687s5.117188-.976562 7.070313-2.929687c3.90625-3.90625 3.90625-10.238281 0-14.144531-15.714844-15.710938-36.605469-24.367188-58.828125-24.367188s-43.117188 8.65625-58.832032 24.367188c-3.902343 3.90625-3.902343 10.238281 0 14.144531zm0 0" data-original="#000000" class="" style="fill:#41D3BD" data-old_color="#000000"/><path d="m160 149.996094c0-5.523438-4.480469-10-10-10h-.007812c-5.523438 0-9.996094 4.476562-9.996094 10 0 5.523437 4.480468 10 10.003906 10s10-4.476563 10-10zm0 0" data-original="#000000" class="" style="fill:#41D3BD" data-old_color="#000000"/><path d="m240 149.996094c0-5.523438-4.476562-10-10-10h-.007812c-5.523438 0-9.996094 4.476562-9.996094 10 0 5.523437 4.480468 10 10.003906 10s10-4.476563 10-10zm0 0" data-original="#000000" class="" style="fill:#41D3BD" data-old_color="#000000"/><path d="m62.722656 72.714844c2.558594 0 5.121094-.976563 7.074219-2.929688 3.902344-3.90625 3.902344-10.234375 0-14.140625-3.90625-3.90625-10.238281-3.90625-14.144531 0l-.003906.003907c-3.90625 3.90625-3.902344 10.234374.003906 14.140624 1.953125 1.949219 4.507812 2.925782 7.070312 2.925782zm0 0" data-original="#000000" class="" style="fill:#41D3BD" data-old_color="#000000"/><path d="m459.777344 459.769531-.003906.003907c-3.90625 3.90625-3.902344 10.234374.003906 14.140624 1.953125 1.953126 4.511718 2.925782 7.070312 2.925782s5.121094-.976563 7.074219-2.929688c3.902344-3.902344 3.902344-10.234375 0-14.140625-3.90625-3.90625-10.234375-3.90625-14.144531 0zm0 0" data-original="#000000" class="" style="fill:#41D3BD" data-old_color="#000000"/></g> </svg>
